HIERARCHY
ROOT pelvis
{
  OFFSET 0 100 0
  CHANNELS 6 Xposition Yposition Zposition Zrotation Xrotation Yrotation
  JOINT pelvis_right_femur
  {
    OFFSET -10.78128 -3.44521 -0.5502486
    CHANNELS 3 Zrotation Xrotation Yrotation
    JOINT right_femur_tibia
    {
      OFFSET -0.8047443 -44.0398 -0.1307829
      CHANNELS 3 Zrotation Xrotation Yrotation
      JOINT right_tibia_foot
      {
        OFFSET 3.006224 -47.83518 -5
        CHANNELS 3 Zrotation Xrotation Yrotation
        End Site
        {
          OFFSET 0 -5 15
        }
      }
    }
  }
  JOINT pelvis_left_femur
  {
    OFFSET 10.78128 -3.44521 -0.5502486
    CHANNELS 3 Zrotation Xrotation Yrotation
    JOINT left_femur_tibia
    {
      OFFSET 0.8047443 -44.0398 -0.1307829
      CHANNELS 3 Zrotation Xrotation Yrotation
      JOINT left_tibia_foot
      {
        OFFSET -4.370144 -48.10324 -4.275266
        CHANNELS 3 Zrotation Xrotation Yrotation
        End Site
        {
          OFFSET 0 -5 15
        }
      }
    }
  }
  JOINT pelvis_spine1
  {
    OFFSET 0 6.468898 -3.129235
    CHANNELS 3 Zrotation Xrotation Yrotation
    JOINT spine1
    {
      OFFSET 0 23.15396 4.99043
      CHANNELS 3 Zrotation Xrotation Yrotation
      JOINT spine2
      {
        OFFSET 0 20.79997 -5.064912
        CHANNELS 3 Zrotation Xrotation Yrotation
        JOINT neck
        {
          OFFSET 0 14.38658 9.616178
          CHANNELS 3 Zrotation Xrotation Yrotation
          End Site
          {
            OFFSET 0 20 0
          }
        }
      }
      JOINT right_manubrium
      {
        OFFSET -5.722621 16.35077 3.967754
        CHANNELS 3 Zrotation Xrotation Yrotation
        JOINT right_clavicle
        {
          OFFSET -13.16364 1.694482 -4.693211
          CHANNELS 3 Zrotation Xrotation Yrotation
          JOINT right_humerus
          {
            OFFSET -28.5034 -0.3100689 -2.792744
            CHANNELS 3 Zrotation Xrotation Yrotation
            JOINT right_radius
            {
              OFFSET -25.15693 0.02248979 -1.271978
              CHANNELS 3 Zrotation Xrotation Yrotation
              End Site
              {
                OFFSET -15 0 0
              }
            }
          }
        }
      }
      JOINT left_manubrium
      {
        OFFSET 5.722621 16.35077 3.967754
        CHANNELS 3 Zrotation Xrotation Yrotation
        JOINT left_clavicle
        {
          OFFSET 13.16364 1.694482 -4.693211
          CHANNELS 3 Zrotation Xrotation Yrotation
          JOINT left_humerus
          {
            OFFSET 29.39168 -1.063119 -2.237045
            CHANNELS 3 Zrotation Xrotation Yrotation
            JOINT left_radius
            {
              OFFSET 24.59957 -0.9528479 0.9047498
              CHANNELS 3 Zrotation Xrotation Yrotation
              End Site
              {
                OFFSET 15 -0 -0
              }
            }
          }
        }
      }
    }
  }
}
MOTION
Frames: 20
Frame Time: 0.0416666666667
14.02248 101.7765 228.4731 1.566113 -7.012562 -1.702713 0.3371396 11.17648 6.67229 -2.025897e-09 33.8383 -1.493077e-10 3.223586 -12.669 -4.156244 -2.733783 -17.83732 -8.329204 -2.197632e-09 19.12601 9.994071e-10 -2.3088 -8.403476 21.19129 -2.781513 0.6093239 7.363182 -0.6741488 9.433532 -3.357708 2.595759 22.79839 5.440645 1.843367 -16.59334 8.100037 2.924689 -20.1744 10.88328 81.78522 28.56414 -5.682726 -1.362584e-09 -7.265696e-10 22.19063 -23.40383 13.40592 14.25132 3.763005 -14.63291 -2.500518 -92.36978 22.74715 21.7296 -4.561239e-10 2.018252e-10 -10.85426 0.1245166 6.845479 14.18704
14.75647 101.9975 234.4756 1.704593 -7.433497 -1.489432 -0.1109018 9.484931 6.763732 -1.585562e-09 40.3336 8.523472e-10 3.212879 -10.06887 -4.694549 -3.805751 -14.75031 -9.4332 2.011623e-09 20.4468 6.913018e-10 -2.239946 -8.890626 21.15633 -3.012916 0.6479167 6.815713 -0.7806945 9.353999 -3.335472 2.667036 23.00735 5.621628 1.940773 -16.50479 8.334543 3.237236 -19.21121 10.71988 82.06483 28.70781 -6.257837 -1.78497e-09 -1.172905e-09 20.77231 -22.87562 13.03082 13.7646 3.579196 -14.30601 -2.593281 -91.61834 23.31659 20.6741 1.702076e-10 -4.131008e-10 -10.25049 0.1971605 7.017282 14.16028
15.48353 102.6386 240.3578 1.902792 -7.766768 -1.049923 -0.5951572 6.481974 6.742353 -1.467983e-09 47.11036 1.867715e-09 3.328613 -7.240151 -5.396852 -5.005889 -10.42407 -10.71007 6.012553e-09 20.74162 8.183841e-11 -2.046318 -9.986404 21.10706 -3.327068 0.6738171 6.106873 -0.8348223 9.232169 -3.458306 2.731252 23.27356 5.886764 2.047312 -16.47835 8.668578 3.587876 -18.10302 10.52828 82.84649 28.98416 -7.346746 -2.167356e-09 -1.545603e-09 19.07245 -22.28856 12.67186 13.20435 3.525008 -14.14347 -2.727037 -90.81857 23.99198 19.12804 7.266963e-10 -9.716169e-10 -10.18066 0.3425111 7.263615 14.07086
16.19068 103.5634 246.0709 2.05945 -7.736557 -0.4350456 -0.8475809 2.318494 6.546374 -1.550656e-09 51.68559 2.610648e-09 3.320189 -4.908981 -6.035872 -5.99125 -5.493595 -11.86087 8.67172e-09 20.18842 -4.726998e-10 -1.730328 -11.4307 20.87304 -3.590722 0.6401459 5.347026 -0.7432888 9.064983 -3.776969 2.735864 23.389 6.161038 2.152594 -16.59922 8.962023 3.907268 -17.01114 10.32604 83.60871 29.36389 -8.849545 -2.383958e-09 -1.733339e-09 17.24738 -21.42503 12.35655 12.47239 3.626732 -14.26138 -2.862563 -89.69573 24.63851 17.24974 1.069016e-09 -1.335648e-09 -10.86278 0.6167619 7.616376 13.77977
16.87089 104.5486 251.64 2.160951 -7.43483 0.3021196 -0.8724138 -2.39344 6.149193 -1.733942e-09 53.31036 2.853425e-09 3.217115 -3.336975 -6.546071 -6.627241 -0.6698336 -12.6667 9.378742e-09 18.78199 -9.465236e-10 -1.339196 -13.04654 20.50657 -3.76691 0.5633874 4.64348 -0.5403389 8.911602 -4.239691 2.692289 23.38314 6.39621 2.230709 -16.79943 9.178023 4.082231 -16.11947 10.15602 84.46975 29.6657 -10.60427 -2.327333e-09 -1.664756e-09 15.5615 -20.57875 12.15637 11.74767 3.900273 -14.7028 -3.029492 -88.47259 25.03084 15.24089 1.104035e-09 -1.414544e-09 -12.28024 1.051188 8.016196 13.2313
17.51802 105.3405 257.148 2.199552 -6.937369 1.092589 -0.6957432 -7.230576 5.571523 -1.947977e-09 51.42642 2.399308e-09 3.135087 -2.744949 -6.934878 -6.864599 3.548885 -12.95991 7.665388e-09 16.60125 -1.399087e-09 -0.9773972 -14.7062 19.99761 -3.832783 0.4748665 4.070665 -0.2542093 8.78392 -4.802505 2.617704 23.25688 6.550927 2.247175 -16.97085 9.290682 4.040384 -15.4922 10.0288 85.39509 29.76154 -12.44807 -1.91709e-09 -1.291387e-09 14.17471 -19.95991 12.1572 11.14796 4.351023 -15.45337 -3.22903 -87.18661 25.03611 13.13908 7.713271e-10 -1.121477e-09 -14.45646 1.608381 8.336615 12.45527
18.11711 105.7709 262.5956 2.127334 -6.197056 1.859473 -0.3110834 -12.04111 4.892771 -2.139927e-09 46.52649 1.454736e-09 2.865169 -2.947358 -7.110254 -6.791972 7.149772 -12.90399 4.308552e-09 14.10111 -1.866272e-09 -0.6183658 -16.22097 19.29967 -3.767764 0.344397 3.604928 0.119436 8.656467 -5.429444 2.496444 22.92146 6.615763 2.226447 -17.15692 9.258511 3.842983 -15.05795 9.917677 85.89372 29.71719 -14.21151 -1.260714e-09 -7.283319e-10 12.97684 -19.28039 12.22763 10.52207 4.89021 -16.39308 -3.419096 -85.58305 24.72976 11.0606 2.248048e-10 -5.60747e-10 -17.05168 2.283695 8.64288 11.43511
18.65305 105.7141 268.1404 2.041407 -5.594864 2.578593 0.1446906 -16.56349 4.196701 -2.444022e-09 39.85883 1.914999e-10 2.864511 -3.662652 -7.406418 -6.536383 10.15901 -12.36475 -3.990726e-10 12.30975 -2.493475e-09 -0.5469201 -17.59257 18.49554 -3.627363 0.2912238 3.272144 0.486378 8.598138 -6.066674 2.411736 22.6673 6.613835 2.144466 -17.19055 9.199201 3.497079 -14.7161 9.870761 86.90046 29.44078 -16.09437 -3.544422e-10 1.806539e-11 11.94077 -19.07191 12.57741 10.1054 5.510765 -17.51363 -3.655629 -84.29225 24.10033 8.865071 -4.738533e-10 2.56498e-10 -20.16101 2.960245 8.711753 10.42335
19.11144 105.2118 273.7383 1.873872 -4.929128 3.200492 0.7048846 -20.6538 3.58511 -2.750084e-09 32.58148 -1.01774e-09 2.632961 -4.55179 -7.552455 -6.20662 12.67028 -11.77436 -4.972206e-09 11.25502 -3.014327e-09 -0.5177479 -18.62228 17.61288 -3.407612 0.2116232 3.007913 0.8738073 8.554573 -6.673047 2.30712 22.3194 6.564238 2.073995 -17.27579 9.055187 3.150159 -14.43513 9.840839 87.50889 29.16408 -17.79773 5.401012e-10 7.188727e-10 10.95563 -18.69163 12.87417 9.607344 6.065583 -18.60456 -3.854301 -82.93445 23.39594 6.938049 -1.083714e-09 1.070325e-09 -23.06814 3.65687 8.80902 9.36279
19.48261 104.3831 279.3402 1.666813 -4.336222 3.723128 1.298114 -24.02853 3.133416 -2.904978e-09 26.18335 -1.940842e-09 2.20347 -5.229166 -7.60527 -5.90919 14.73246 -11.26722 -8.439149e-09 11.42355 -3.212623e-09 -0.5437781 -19.21828 16.74118 -3.149602 0.1243618 2.789609 1.228681 8.538587 -7.182636 2.204762 21.96111 6.491354 2.036109 -17.40197 8.869665 2.876133 -14.143 9.824759 87.78705 28.93988 -19.25199 1.277765e-09 1.25386e-09 9.963067 -18.14787 13.05424 9.035524 6.471718 -19.53013 -4.016298 -81.6329 22.74529 5.377582 -1.485852e-09 1.699789e-09 -25.40949 4.31549 8.943223 8.366264
19.77952 103.3912 284.9791 1.506648 -4.03582 4.164534 1.828348 -26.22429 2.886484 -2.811316e-09 21.75124 -2.48278e-09 1.827047 -5.543881 -7.694043 -5.699971 16.11335 -10.80639 -1.046957e-08 13.11851 -2.973351e-09 -0.7198044 -19.34071 16.02414 -2.90482 0.08992856 2.657795 1.475489 8.592078 -7.525944 2.150678 21.76576 6.414529 2.022849 -17.48813 8.715964 2.692211 -13.85736 9.851959 88.17354 28.72623 -20.40325 1.796625e-09 1.589807e-09 9.088773 -17.76903 13.20707 8.578618 6.697991 -20.21487 -4.162775 -80.82625 22.22935 4.283029 -1.667684e-09 2.072569e-09 -27.02441 4.825495 9.016454 7.635587
20.03454 102.5023 290.7106 1.46755 -4.180221 4.574441 2.172411 -27.18083 2.867839 -2.266989e-09 20.9371 -2.424236e-09 1.610427 -5.055474 -7.923612 -5.720081 17.08399 -10.54682 -1.021071e-08 16.59644 -2.285351e-09 -1.046798 -19.04279 15.58604 -2.741292 0.1357199 2.563293 1.560459 8.731663 -7.661973 2.17464 21.86577 6.380743 2.055331 -17.52388 8.674034 2.673688 -13.49066 9.92327 88.96741 28.54832 -21.29103 1.966257e-09 1.630369e-09 8.24675 -17.63281 13.30615 8.275133 6.693567 -20.56588 -4.312649 -80.72662 22.0158 3.645602 -1.545211e-09 2.025242e-09 -27.67593 5.132631 9.043386 7.295265
20.28308 101.9724 296.5106 1.473044 -4.571666 4.949092 2.473766 -26.52546 3.069038 -1.256801e-09 22.61351 -1.867861e-09 1.250156 -4.123536 -8.033495 -5.808186 17.06645 -10.46213 -7.949226e-09 21.65736 -1.241683e-09 -1.404871 -18.08533 15.38557 -2.58435 0.1970579 2.575811 1.525492 8.943995 -7.575596 2.229184 22.07737 6.338526 2.139715 -17.59293 8.632545 2.787344 -13.19583 10.03234 89.49635 28.46505 -21.63862 1.781908e-09 1.389809e-09 7.608299 -17.49191 13.25018 8.040236 6.43009 -20.55761 -4.420661 -81.05044 22.05382 3.778034 -1.147706e-09 1.583108e-09 -27.17128 5.282721 9.118351 7.221569
20.53649 101.9591 302.3523 1.445928 -5.050061 5.23817 2.92153 -24.41587 3.466475 1.20827e-10 24.90123 -1.089346e-09 0.6145176 -3.272168 -7.93365 -5.797086 15.80972 -10.38283 -4.697854e-09 28.44094 2.688381e-11 -1.820357 -16.40754 15.31025 -2.349177 0.2505043 2.764133 1.445727 9.244772 -7.343625 2.286501 22.32224 6.250556 2.266381 -17.76956 8.525288 2.973458 -13.08463 10.21643 89.76491 28.49127 -21.5871 1.385512e-09 9.861833e-10 7.250507 -17.2907 13.12215 7.836872 5.97449 -20.3678 -4.47761 -81.80972 22.2311 4.719235 -5.664773e-10 9.23164e-10 -25.89242 5.342982 9.252265 7.313392
20.81365 102.4867 308.2118 1.378264 -5.514962 5.392068 3.459023 -20.84832 3.989017 1.574714e-09 26.88993 -3.066382e-10 -0.2010547 -2.948398 -7.582557 -5.601282 13.04197 -10.24308 -1.332785e-09 35.76259 1.202085e-09 -2.23822 -14.1962 15.43223 -2.054304 0.2870586 3.180827 1.334252 9.605569 -6.99106 2.333952 22.56947 6.115389 2.407823 -18.05057 8.354274 3.179009 -13.31915 10.48097 89.76869 28.63288 -21.05277 8.693071e-10 5.141215e-10 7.454931 -17.15886 12.99981 7.785476 5.410048 -20.04964 -4.454218 -83.13109 22.48651 6.555608 7.390204e-11 2.23195e-10 -24.04345 5.269719 9.407667 7.608978
21.12488 103.4311 313.9317 1.189924 -5.635358 5.359349 4.018596 -16.39338 4.41891 2.746976e-09 27.26842 3.36346e-10 -1.405062 -3.409785 -6.75767 -5.149565 9.027886 -10.11775 1.366966e-09 41.21774 2.103667e-09 -2.339454 -11.78861 15.66607 -1.708329 0.2075206 3.743388 1.25333 9.905346 -6.574252 2.297568 22.51205 5.91517 2.539396 -18.44512 8.031439 3.311839 -13.96932 10.72417 88.54151 28.87187 -19.77727 3.449506e-10 6.186576e-11 8.274786 -16.77011 12.69979 7.75868 4.831947 -19.61158 -4.314932 -84.17538 22.63537 9.128249 6.268853e-10 -3.517925e-10 -21.72809 5.190246 9.700434 7.789674
21.47935 104.6238 319.6468 1.044665 -5.879676 5.15071 4.49105 -11.6443 4.742313 3.633852e-09 26.7622 7.393425e-10 -2.249062 -4.321841 -6.06588 -4.570629 4.51221 -9.669631 2.773275e-09 46.09228 2.966033e-09 -2.566245 -9.497425 16.00459 -1.378505 0.1927902 4.414583 1.134447 10.24816 -6.152223 2.295171 22.58367 5.69977 2.616622 -18.71903 7.747561 3.330506 -14.80393 11.02175 87.87682 28.92229 -18.49113 1.67304e-12 -2.41317e-10 9.440841 -16.9184 12.6553 8.039079 4.356272 -19.28934 -4.204659 -85.74804 22.57689 11.72425 1.008657e-09 -6.958222e-10 -19.76942 5.044575 9.818241 8.076436
21.89711 105.8737 325.2316 0.8582167 -5.824259 4.77755 4.780161 -6.89883 4.839827 3.92555e-09 25.33825 9.533486e-10 -3.198406 -5.697362 -5.086479 -3.890785 -0.3047321 -9.332325 3.180428e-09 47.30448 3.585095e-09 -2.354962 -7.644747 16.50387 -1.120687 0.06784033 5.083442 1.025729 10.48714 -5.728038 2.219476 22.42491 5.487274 2.663732 -19.02358 7.416668 3.232373 -15.9762 11.24738 86.38724 28.912 -16.67097 -2.602928e-10 -4.548208e-10 11.10777 -17.00066 12.44919 8.429123 3.994712 -18.92502 -4.039183 -86.97505 22.36327 14.5929 1.179548e-09 -8.421672e-10 -17.67748 4.959938 10.07587 8.151444
22.42117 106.8213 330.7176 0.7616266 -5.651893 4.319848 4.721961 -2.750862 4.646864 3.249139e-09 23.08466 7.179962e-10 -3.682544 -7.492082 -4.12793 -3.184019 -4.884133 -8.954045 1.605438e-09 43.63962 3.840283e-09 -1.797784 -6.778568 17.22119 -1.041733 -0.08876535 5.696265 0.8831076 10.61745 -5.35271 2.1237 22.22332 5.321356 2.625127 -19.16127 7.167248 2.919979 -17.44463 11.38965 84.95477 28.62583 -14.61093 -2.634207e-10 -4.075315e-10 13.30636 -17.57618 12.32213 9.191532 3.910035 -18.65307 -3.896435 -88.11816 21.89303 17.21062 9.23492e-10 -6.121922e-10 -16.06212 4.897838 10.27849 8.091238
23.08425 107.2684 336.1164 0.7476438 -5.441473 3.835368 4.407157 0.9415625 4.303781 1.960437e-09 20.91204 1.993967e-10 -3.848047 -9.366974 -3.193659 -2.533026 -9.128925 -8.642746 -6.823134e-10 36.74003 3.39849e-09 -0.9821671 -6.609462 18.12894 -1.108185 -0.2698379 6.240516 0.7048288 10.68021 -5.004184 2.020425 22.03648 5.20861 2.543904 -19.20607 7.002097 2.493289 -19.07985 11.46902 83.69882 28.1645 -12.44871 -1.519149e-10 -2.216109e-10 15.80675 -18.47154 12.20525 10.19461 3.995008 -18.42096 -3.777333 -89.27227 21.29385 19.65524 4.21829e-10 -1.999068e-10 -14.67897 4.855438 10.47825 7.955713
